<svg xmlns="http://www.w3.org/2000/svg" viewBox="0 0 1024 1024" width="1024" height="1024">
  <g fill="#ff9f0a">
    <path d="M84 332V172c0-48.6 39.4-88 88-88h160v68H172c-11 0-20 9-20 20v160H84z"/>
    <path d="M692 84h160c48.6 0 88 39.4 88 88v160h-68V172c0-11-9-20-20-20H692V84z"/>
    <path d="M84 692h68v160c0 11 9 20 20 20h160v68H172c-48.6 0-88-39.4-88-88V692z"/>
    <path d="M872 692h68v160c0 48.6-39.4 88-88 88H692v-68h160c11 0 20-9 20-20V692z"/>
  </g>
  <g fill="#fff">
    <path fill-rule="evenodd" d="M316 216h392c55.2 0 100 44.8 100 100v404c0 55.2-44.8 100-100 100H316c-55.2 0-100-44.8-100-100V316c0-55.2 44.8-100 100-100zm-32 220v284c0 17.6 14.4 32 32 32h392c17.6 0 32-14.4 32-32V436H284z"/>
    <rect x="352" y="168" width="64" height="176" rx="32"/>
    <rect x="608" y="168" width="64" height="176" rx="32"/>
    <rect x="556" y="528" width="156" height="156" rx="32"/>
  </g>
</svg>
